PathFileType	4	(X/Y/Z)	C:\Users\WrightLab\Desktop\Jo\P4V110.trc
DataRate	CameraRate	NumFrames	NumMarkers	Units	OrigDataRate	OrigDataStartFrame	OrigNumFrames
100.00	100.00	       24	19	mm	100.00	554	       633
Frame#	Time	Headset_Front			Headset_Back			Headset_Left			Headset_Right			Left_Shoulder			Right_Shoulder			Sternum			C7			Left Elbow			Right Elbow			Left Wrist			Right Wrist			Left ASIS			Right ASIS			S2			Left Knee			Right Knee			Left Ankle			Right Ankle			
		X1	Y1	Z1	X2	Y2	Z2	X3	Y3	Z3	X4	Y4	Z4	X5	Y5	Z5	X6	Y6	Z6	X7	Y7	Z7	X8	Y8	Z8	X9	Y9	Z9	X10	Y10	Z10	X11	Y11	Z11	X12	Y12	Z12	X13	Y13	Z13	X14	Y14	Z14	X15	Y15	Z15	X16	Y16	Z16	X17	Y17	Z17	X18	Y18	Z18	X19	Y19	Z19	

554	5.530													-152.32182	1582.10010	2368.99683										-143.36070	1248.76099	2543.01245																			-167.49742	589.94623	2429.79492	-421.25131	599.73914	2245.40454	-55.09018	150.25433	2160.37085				
555	5.540													-157.23047	1583.79382	2373.87134										-148.93892	1250.00610	2547.33984																			-175.29576	590.21906	2442.78491	-419.82526	598.82214	2243.65137	-57.20075	158.97755	2164.58789				
556	5.550													-162.07320	1584.10266	2377.25952										-154.01466	1250.55090	2551.43408																			-183.29762	590.85114	2455.42603	-418.48676	597.79193	2243.23975	-58.74017	166.80424	2170.10132				
557	5.560													-167.12685	1585.36597	2381.73853										-158.80362	1251.01221	2555.04077																			-192.00960	591.30426	2468.86694	-417.41977	596.93146	2246.11060	-59.77464	176.60248	2176.47241				
558	5.570													-171.58704	1585.99695	2386.23755										-163.97295	1251.27173	2559.38452																			-200.97533	590.83167	2478.59790	-416.83240	596.80872	2245.54321	-61.56903	187.01141	2182.48413				
559	5.580													-177.02753	1586.54785	2390.44141										-169.15398	1251.85095	2564.23047																			-209.29968	591.44983	2490.77002	-415.64380	596.24030	2245.17065	-63.94728	197.72328	2188.80103				
560	5.590													-181.92711	1586.67749	2395.23560										-174.16817	1251.77405	2568.80518																			-217.82698	592.49567	2501.84644	-414.93137	596.18750	2244.46191	-64.70008	207.18013	2197.98975				
561	5.600													-186.63559	1586.94678	2399.64624										-179.32085	1251.73816	2573.65112																			-227.39740	593.81769	2513.11938	-414.75784	596.19958	2244.27954	-66.73992	216.13000	2204.27661				
562	5.610													-192.27844	1587.09155	2404.86646										-184.50545	1251.97522	2578.88940																			-236.52567	594.94330	2523.35425	-414.58627	596.18890	2244.01294	-68.48588	223.81392	2215.11621				
563	5.620													-197.42722	1587.28064	2409.82349										-189.45839	1251.90881	2583.57202																			-246.61697	596.95508	2533.80078	-414.34586	596.18457	2243.70850	-71.88974	230.63115	2223.70776				
564	5.630													-203.10538	1587.41077	2414.85596										-194.43590	1251.81970	2588.15454																			-256.95566	599.40753	2543.46973	-413.74640	596.37689	2243.22290	-73.29704	234.83386	2234.33789				
565	5.640													-208.10027	1587.06189	2419.37305										-199.28799	1251.89111	2593.04736																			-267.21426	601.57501	2552.40503	-413.02319	596.55200	2242.77539	-75.95871	239.31053	2247.38696				
566	5.650													-213.66367	1588.03735	2424.20801										-204.11690	1252.10742	2597.91479																			-278.16092	604.87445	2560.66650	-412.25006	596.82672	2242.32275	-78.42243	242.18188	2261.23218				
567	5.660													-219.33261	1588.87903	2429.21167										-208.78978	1252.15442	2601.74634																			-289.27521	608.29846	2567.62354	-410.57257	596.78491	2241.92847	-81.00938	244.36899	2275.41602				
568	5.670													-225.26692	1589.28760	2434.41382										-213.44353	1252.45325	2606.20630																			-300.54688	611.23260	2573.92725	-408.15829	596.83795	2245.05176	-83.69452	245.51617	2291.87427				
569	5.680													-230.56169	1590.01636	2438.68652										-217.74142	1252.91443	2610.32471																			-312.01376	614.45892	2580.07227	-406.89188	597.30035	2243.76514	-86.95943	244.21341	2305.83838				
570	5.690													-237.05055	1591.82544	2443.81201										-222.33231	1253.34229	2614.45410																			-322.74817	617.12073	2584.08398	-405.22202	597.73785	2242.82324	-90.28093	243.77145	2324.07715				
571	5.700													-242.48111	1592.41492	2448.45605										-227.31659	1254.18787	2618.83740																			-333.50272	619.99243	2588.03882	-401.88315	598.28198	2243.58813	-94.05898	240.08089	2340.10229				
572	5.710																									-231.67731	1255.02209	2623.04004																			-344.18829	623.16199	2591.65015	-400.53674	597.75311	2246.47021	-100.17879	235.65865	2358.81787				
573	5.720																									-236.55911	1255.37390	2627.38110																			-353.71152	624.85614	2593.75220	-398.03171	599.11090	2243.19385	-103.76010	229.93974	2378.07837				
574	5.730																									-241.54846	1256.16479	2631.40063																			-363.13297	627.05212	2595.86670	-395.93158	599.53400	2241.84497	-110.77602	225.51138	2396.99512				
575	5.740																									-246.25522	1256.77808	2636.08423																			-372.11148	628.79932	2597.40112	-394.53284	598.36035	2247.90845	-117.02435	217.51505	2415.34131				
576	5.750																									-251.61478	1257.12671	2639.89600																			-379.92499	630.23505	2598.47632	-391.73627	599.86224	2244.24365	-123.16177	211.66299	2436.11914				
577	5.760																									-256.98486	1258.01355	2645.07568																			-387.39841	631.20837	2598.89160	-390.25961	599.28406	2246.96021	-131.58926	205.10350	2456.87134				
